<svg width="2048" height="2048" viewBox="0 0 2048 2048" fill="none" xmlns="http://www.w3.org/2000/svg">
<g clip-path="url(#clip0_278_8)">
<rect width="2048" height="2048" fill="white"/>
<rect width="2048" height="2048" fill="url(#paint0_linear_278_8)"/>
<g filter="url(#filter0_ddi_278_8)">
<path d="M686.88 924L676.73 868H628.78L619.33 924H569.28L616.88 681.45H690.03L736.93 924H686.88ZM636.13 823.55H669.03L652.23 729.75L636.13 823.55ZM846.571 737.45C846.571 733.25 845.521 730.1 843.421 728C841.554 725.667 837.821 724.5 832.221 724.5H807.021V878.85H832.221C841.787 878.85 846.571 873.483 846.571 862.75V737.45ZM754.521 681.45H839.571C858.471 681.45 873.054 686 883.321 695.1C893.821 704.2 899.071 717.617 899.071 735.35V866.95C899.071 904.983 880.287 924 842.721 924H754.521V681.45ZM927.128 681.45H980.328V924H927.128V681.45ZM1138.59 681.45V726.95H1094.84V924H1041.64V726.95L997.894 726.95V681.45L1138.59 681.45ZM1251.33 924H1198.13V848.75L1140.38 681.45H1194.28L1205.83 718.2C1214.93 746.9 1221.47 772.333 1225.43 794.5C1229.87 771.867 1236.52 746.2 1245.38 717.5L1256.58 681.45H1309.08L1251.33 848.75V924ZM1428.58 924L1418.43 868H1370.48L1361.03 924H1310.98L1358.58 681.45H1431.73L1478.63 924H1428.58ZM1377.83 823.55H1410.73L1393.93 729.75L1377.83 823.55ZM621.903 1141.65C621.903 1131.85 616.887 1126.95 606.853 1126.95H587.253V1208.5H606.853C616.887 1208.5 621.903 1203.6 621.903 1193.8V1141.65ZM534.403 1081.45H613.503C632.403 1081.45 647.22 1086 657.953 1095.1C668.92 1104.2 674.403 1117.62 674.403 1135.35V1200.1C674.403 1217.83 668.92 1231.25 657.953 1240.35C647.22 1249.45 632.403 1254 613.503 1254H587.253V1324H534.403V1081.45ZM802.408 1324L792.258 1268H744.308L734.858 1324H684.808L732.408 1081.45H805.558L852.458 1324H802.408ZM751.658 1223.55H784.558L767.758 1129.75L751.658 1223.55ZM972.948 1081.45H1024.75V1324H974.348C939.815 1235.8 919.865 1182.6 914.498 1164.4C919.398 1182.83 921.848 1214.57 921.848 1259.6V1324H870.048V1081.45H921.848L953.698 1162.65C967.231 1197.42 976.331 1223.78 980.998 1241.75C975.631 1219.12 972.948 1185.98 972.948 1142.35V1081.45ZM1148.38 1137.45C1148.38 1133.25 1147.33 1130.1 1145.23 1128C1143.36 1125.67 1139.63 1124.5 1134.03 1124.5H1108.83V1278.85H1134.03C1143.59 1278.85 1148.38 1273.48 1148.38 1262.75V1137.45ZM1056.33 1081.45H1141.38C1160.28 1081.45 1174.86 1086 1185.13 1095.1C1195.63 1104.2 1200.88 1117.62 1200.88 1135.35V1266.95C1200.88 1304.98 1182.09 1324 1144.53 1324H1056.33V1081.45ZM1228.93 1081.45H1351.78V1126.95H1281.43V1178.4H1342.33V1223.9H1281.43V1278.5H1351.78V1324H1228.93V1081.45ZM1471.45 1324H1418.25V1248.75L1360.5 1081.45H1414.4L1425.95 1118.2C1435.05 1146.9 1441.58 1172.33 1445.55 1194.5C1449.98 1171.87 1456.63 1146.2 1465.5 1117.5L1476.7 1081.45H1529.2L1471.45 1248.75V1324Z" fill="white"/>
</g>
</g>
<defs>
<filter id="filter0_ddi_278_8" x="514.403" y="656.45" width="1064.8" height="712.55" filterUnits="userSpaceOnUse" color-interpolation-filters="sRGB">
<feFlood flood-opacity="0" result="BackgroundImageFix"/>
<feColorMatrix in="SourceAlpha" type="matrix" values="0 0 0 0 0 0 0 0 0 0 0 0 0 0 0 0 0 0 127 0" result="hardAlpha"/>
<feOffset dx="15" dy="10"/>
<feGaussianBlur stdDeviation="17.5"/>
<feComposite in2="hardAlpha" operator="out"/>
<feColorMatrix type="matrix" values="0 0 0 0 0 0 0 0 0 0 0 0 0 0 0 0 0 0 1 0"/>
<feBlend mode="normal" in2="BackgroundImageFix" result="effect1_dropShadow_278_8"/>
<feColorMatrix in="SourceAlpha" type="matrix" values="0 0 0 0 0 0 0 0 0 0 0 0 0 0 0 0 0 0 127 0" result="hardAlpha"/>
<feOffset/>
<feGaussianBlur stdDeviation="7.5"/>
<feComposite in2="hardAlpha" operator="out"/>
<feColorMatrix type="matrix" values="0 0 0 0 0 0 0 0 0 0 0 0 0 0 0 0 0 0 1 0"/>
<feBlend mode="normal" in2="effect1_dropShadow_278_8" result="effect2_dropShadow_278_8"/>
<feBlend mode="normal" in="SourceGraphic" in2="effect2_dropShadow_278_8" result="shape"/>
<feColorMatrix in="SourceAlpha" type="matrix" values="0 0 0 0 0 0 0 0 0 0 0 0 0 0 0 0 0 0 127 0" result="hardAlpha"/>
<feOffset/>
<feGaussianBlur stdDeviation="7.5"/>
<feComposite in2="hardAlpha" operator="arithmetic" k2="-1" k3="1"/>
<feColorMatrix type="matrix" values="0 0 0 0 0 0 0 0 0 0 0 0 0 0 0 0 0 0 0.5 0"/>
<feBlend mode="normal" in2="shape" result="effect3_innerShadow_278_8"/>
</filter>
<linearGradient id="paint0_linear_278_8" x1="8.15967e-06" y1="2048" x2="2070" y2="-13.5" gradientUnits="userSpaceOnUse">
<stop stop-color="#E5FF47" stop-opacity="0.9"/>
<stop offset="0.5" stop-color="#FFA500" stop-opacity="0.85"/>
<stop offset="1" stop-color="#FF3D00" stop-opacity="0.8"/>
</linearGradient>
<clipPath id="clip0_278_8">
<rect width="2048" height="2048" fill="white"/>
</clipPath>
</defs>
</svg>
