<svg id="svgQrWrapper" viewBox="0 0 300 300" xmlns="http://www.w3.org/2000/svg" xmlns:xlink="http://www.w3.org/1999/xlink" width="300" height="300" style="width: 100%; height: 100%; background-color: transparent;"><svg><g transform="translate(9, 9)scale(0.95)" fill="none"><svg width="300" height="300"><style>.background-color{ fill: #fff; }</style><defs><clipPath id="clip-path-dot-color"><circle cx="5.5" cy="77.5" r="3" transform="rotate(0,5.5,77.5)"/><circle cx="5.5" cy="86.5" r="3" transform="rotate(0,5.5,86.5)"/><circle cx="5.5" cy="104.5" r="3" transform="rotate(0,5.5,104.5)"/><circle cx="5.5" cy="131.5" r="3" transform="rotate(0,5.5,131.5)"/><circle cx="5.5" cy="158.5" r="3" transform="rotate(0,5.5,158.5)"/><circle cx="5.5" cy="167.5" r="3" transform="rotate(0,5.5,167.5)"/><circle cx="5.5" cy="194.5" r="3" transform="rotate(0,5.5,194.5)"/><circle cx="5.5" cy="203.5" r="3" transform="rotate(0,5.5,203.5)"/><circle cx="5.5" cy="221.5" r="3" transform="rotate(0,5.5,221.5)"/><circle cx="14.5" cy="95.5" r="3" transform="rotate(0,14.5,95.5)"/><circle cx="14.5" cy="113.5" r="3" transform="rotate(0,14.5,113.5)"/><circle cx="14.5" cy="140.5" r="3" transform="rotate(0,14.5,140.5)"/><circle cx="14.5" cy="149.5" r="3" transform="rotate(0,14.5,149.5)"/><circle cx="14.5" cy="176.5" r="3" transform="rotate(0,14.5,176.5)"/><circle cx="14.5" cy="221.5" r="3" transform="rotate(0,14.5,221.5)"/><circle cx="23.5" cy="77.5" r="3" transform="rotate(0,23.5,77.5)"/><circle cx="23.5" cy="86.5" r="3" transform="rotate(0,23.5,86.5)"/><circle cx="23.5" cy="95.5" r="3" transform="rotate(0,23.5,95.5)"/><circle cx="23.5" cy="113.5" r="3" transform="rotate(0,23.5,113.5)"/><circle cx="23.5" cy="149.5" r="3" transform="rotate(0,23.5,149.5)"/><circle cx="23.5" cy="167.5" r="3" transform="rotate(0,23.5,167.5)"/><circle cx="23.5" cy="194.5" r="3" transform="rotate(0,23.5,194.5)"/><circle cx="23.5" cy="203.5" r="3" transform="rotate(0,23.5,203.5)"/><circle cx="23.5" cy="212.5" r="3" transform="rotate(0,23.5,212.5)"/><circle cx="23.5" cy="221.5" r="3" transform="rotate(0,23.5,221.5)"/><circle cx="32.5" cy="113.5" r="3" transform="rotate(0,32.5,113.5)"/><circle cx="32.5" cy="158.5" r="3" transform="rotate(0,32.5,158.5)"/><circle cx="32.5" cy="176.5" r="3" transform="rotate(0,32.5,176.5)"/><circle cx="32.5" cy="185.5" r="3" transform="rotate(0,32.5,185.5)"/><circle cx="32.5" cy="194.5" r="3" transform="rotate(0,32.5,194.5)"/><circle cx="32.5" cy="212.5" r="3" transform="rotate(0,32.5,212.5)"/><circle cx="32.5" cy="221.5" r="3" transform="rotate(0,32.5,221.5)"/><circle cx="41.5" cy="77.5" r="3" transform="rotate(0,41.5,77.5)"/><circle cx="41.5" cy="86.5" r="3" transform="rotate(0,41.5,86.5)"/><circle cx="41.5" cy="95.5" r="3" transform="rotate(0,41.5,95.5)"/><circle cx="41.5" cy="104.5" r="3" transform="rotate(0,41.5,104.5)"/><circle cx="41.5" cy="113.5" r="3" transform="rotate(0,41.5,113.5)"/><circle cx="41.5" cy="122.5" r="3" transform="rotate(0,41.5,122.5)"/><circle cx="41.5" cy="131.5" r="3" transform="rotate(0,41.5,131.5)"/><circle cx="41.5" cy="158.5" r="3" transform="rotate(0,41.5,158.5)"/><circle cx="41.5" cy="167.5" r="3" transform="rotate(0,41.5,167.5)"/><circle cx="41.5" cy="176.5" r="3" transform="rotate(0,41.5,176.5)"/><circle cx="41.5" cy="185.5" r="3" transform="rotate(0,41.5,185.5)"/><circle cx="41.5" cy="194.5" r="3" transform="rotate(0,41.5,194.5)"/><circle cx="41.5" cy="203.5" r="3" transform="rotate(0,41.5,203.5)"/><circle cx="41.5" cy="221.5" r="3" transform="rotate(0,41.5,221.5)"/><circle cx="50.5" cy="95.5" r="3" transform="rotate(0,50.5,95.5)"/><circle cx="50.5" cy="131.5" r="3" transform="rotate(0,50.5,131.5)"/><circle cx="50.5" cy="176.5" r="3" transform="rotate(0,50.5,176.5)"/><circle cx="59.5" cy="77.5" r="3" transform="rotate(0,59.5,77.5)"/><circle cx="59.5" cy="95.5" r="3" transform="rotate(0,59.5,95.5)"/><circle cx="59.5" cy="113.5" r="3" transform="rotate(0,59.5,113.5)"/><circle cx="59.5" cy="131.5" r="3" transform="rotate(0,59.5,131.5)"/><circle cx="59.5" cy="149.5" r="3" transform="rotate(0,59.5,149.5)"/><circle cx="59.5" cy="167.5" r="3" transform="rotate(0,59.5,167.5)"/><circle cx="59.5" cy="185.5" r="3" transform="rotate(0,59.5,185.5)"/><circle cx="59.5" cy="203.5" r="3" transform="rotate(0,59.5,203.5)"/><circle cx="59.5" cy="221.5" r="3" transform="rotate(0,59.5,221.5)"/><circle cx="68.5" cy="77.5" r="3" transform="rotate(0,68.5,77.5)"/><circle cx="68.5" cy="122.5" r="3" transform="rotate(0,68.5,122.5)"/><circle cx="68.5" cy="131.5" r="3" transform="rotate(0,68.5,131.5)"/><circle cx="68.5" cy="149.5" r="3" transform="rotate(0,68.5,149.5)"/><circle cx="68.5" cy="167.5" r="3" transform="rotate(0,68.5,167.5)"/><circle cx="68.5" cy="203.5" r="3" transform="rotate(0,68.5,203.5)"/><circle cx="77.5" cy="50.5" r="3" transform="rotate(0,77.5,50.5)"/><circle cx="77.5" cy="59.5" r="3" transform="rotate(0,77.5,59.5)"/><circle cx="77.5" cy="86.5" r="3" transform="rotate(0,77.5,86.5)"/><circle cx="77.5" cy="113.5" r="3" transform="rotate(0,77.5,113.5)"/><circle cx="77.5" cy="149.5" r="3" transform="rotate(0,77.5,149.5)"/><circle cx="77.5" cy="185.5" r="3" transform="rotate(0,77.5,185.5)"/><circle cx="77.5" cy="203.5" r="3" transform="rotate(0,77.5,203.5)"/><circle cx="77.5" cy="221.5" r="3" transform="rotate(0,77.5,221.5)"/><circle cx="77.5" cy="239.5" r="3" transform="rotate(0,77.5,239.5)"/><circle cx="77.5" cy="257.5" r="3" transform="rotate(0,77.5,257.5)"/><circle cx="77.5" cy="275.5" r="3" transform="rotate(0,77.5,275.5)"/><circle cx="77.5" cy="293.5" r="3" transform="rotate(0,77.5,293.5)"/><circle cx="86.5" cy="5.5" r="3" transform="rotate(0,86.5,5.5)"/><circle cx="86.5" cy="23.5" r="3" transform="rotate(0,86.5,23.5)"/><circle cx="86.5" cy="32.5" r="3" transform="rotate(0,86.5,32.5)"/><circle cx="86.5" cy="41.5" r="3" transform="rotate(0,86.5,41.5)"/><circle cx="86.5" cy="68.5" r="3" transform="rotate(0,86.5,68.5)"/><circle cx="86.5" cy="122.5" r="3" transform="rotate(0,86.5,122.5)"/><circle cx="86.5" cy="149.5" r="3" transform="rotate(0,86.5,149.5)"/><circle cx="86.5" cy="167.5" r="3" transform="rotate(0,86.5,167.5)"/><circle cx="86.5" cy="176.5" r="3" transform="rotate(0,86.5,176.5)"/><circle cx="86.5" cy="194.5" r="3" transform="rotate(0,86.5,194.5)"/><circle cx="86.5" cy="203.5" r="3" transform="rotate(0,86.5,203.5)"/><circle cx="86.5" cy="230.5" r="3" transform="rotate(0,86.5,230.5)"/><circle cx="86.5" cy="248.5" r="3" transform="rotate(0,86.5,248.5)"/><circle cx="86.5" cy="257.5" r="3" transform="rotate(0,86.5,257.5)"/><circle cx="86.5" cy="275.5" r="3" transform="rotate(0,86.5,275.5)"/><circle cx="86.5" cy="284.5" r="3" transform="rotate(0,86.5,284.5)"/><circle cx="95.5" cy="14.5" r="3" transform="rotate(0,95.5,14.5)"/><circle cx="95.5" cy="32.5" r="3" transform="rotate(0,95.5,32.5)"/><circle cx="95.5" cy="50.5" r="3" transform="rotate(0,95.5,50.5)"/><circle cx="95.5" cy="59.5" r="3" transform="rotate(0,95.5,59.5)"/><circle cx="95.5" cy="68.5" r="3" transform="rotate(0,95.5,68.5)"/><circle cx="95.5" cy="77.5" r="3" transform="rotate(0,95.5,77.5)"/><circle cx="95.5" cy="104.5" r="3" transform="rotate(0,95.5,104.5)"/><circle cx="95.5" cy="113.5" r="3" transform="rotate(0,95.5,113.5)"/><circle cx="95.5" cy="122.5" r="3" transform="rotate(0,95.5,122.5)"/><circle cx="95.5" cy="131.5" r="3" transform="rotate(0,95.5,131.5)"/><circle cx="95.5" cy="149.5" r="3" transform="rotate(0,95.5,149.5)"/><circle cx="95.5" cy="185.5" r="3" transform="rotate(0,95.5,185.5)"/><circle cx="95.5" cy="203.5" r="3" transform="rotate(0,95.5,203.5)"/><circle cx="95.5" cy="230.5" r="3" transform="rotate(0,95.5,230.5)"/><circle cx="95.5" cy="239.5" r="3" transform="rotate(0,95.5,239.5)"/><circle cx="95.5" cy="248.5" r="3" transform="rotate(0,95.5,248.5)"/><circle cx="95.5" cy="266.5" r="3" transform="rotate(0,95.5,266.5)"/><circle cx="95.5" cy="284.5" r="3" transform="rotate(0,95.5,284.5)"/><circle cx="104.5" cy="5.5" r="3" transform="rotate(0,104.5,5.5)"/><circle cx="104.5" cy="23.5" r="3" transform="rotate(0,104.5,23.5)"/><circle cx="104.5" cy="86.5" r="3" transform="rotate(0,104.5,86.5)"/><circle cx="104.5" cy="104.5" r="3" transform="rotate(0,104.5,104.5)"/><circle cx="104.5" cy="113.5" r="3" transform="rotate(0,104.5,113.5)"/><circle cx="104.5" cy="131.5" r="3" transform="rotate(0,104.5,131.5)"/><circle cx="104.5" cy="149.5" r="3" transform="rotate(0,104.5,149.5)"/><circle cx="104.5" cy="185.5" r="3" transform="rotate(0,104.5,185.5)"/><circle cx="104.5" cy="194.5" r="3" transform="rotate(0,104.5,194.5)"/><circle cx="104.5" cy="212.5" r="3" transform="rotate(0,104.5,212.5)"/><circle cx="104.5" cy="230.5" r="3" transform="rotate(0,104.5,230.5)"/><circle cx="104.5" cy="248.5" r="3" transform="rotate(0,104.5,248.5)"/><circle cx="104.5" cy="266.5" r="3" transform="rotate(0,104.5,266.5)"/><circle cx="104.5" cy="275.5" r="3" transform="rotate(0,104.5,275.5)"/><circle cx="104.5" cy="284.5" r="3" transform="rotate(0,104.5,284.5)"/><circle cx="113.5" cy="14.5" r="3" transform="rotate(0,113.5,14.5)"/><circle cx="113.5" cy="23.5" r="3" transform="rotate(0,113.5,23.5)"/><circle cx="113.5" cy="50.5" r="3" transform="rotate(0,113.5,50.5)"/><circle cx="113.5" cy="59.5" r="3" transform="rotate(0,113.5,59.5)"/><circle cx="113.5" cy="68.5" r="3" transform="rotate(0,113.5,68.5)"/><circle cx="113.5" cy="77.5" r="3" transform="rotate(0,113.5,77.5)"/><circle cx="113.5" cy="86.5" r="3" transform="rotate(0,113.5,86.5)"/><circle cx="113.5" cy="122.5" r="3" transform="rotate(0,113.5,122.5)"/><circle cx="113.5" cy="131.5" r="3" transform="rotate(0,113.5,131.5)"/><circle cx="113.5" cy="140.5" r="3" transform="rotate(0,113.5,140.5)"/><circle cx="113.5" cy="149.5" r="3" transform="rotate(0,113.5,149.5)"/><circle cx="113.5" cy="158.5" r="3" transform="rotate(0,113.5,158.5)"/><circle cx="113.5" cy="167.5" r="3" transform="rotate(0,113.5,167.5)"/><circle cx="113.5" cy="176.5" r="3" transform="rotate(0,113.5,176.5)"/><circle cx="113.5" cy="185.5" r="3" transform="rotate(0,113.5,185.5)"/><circle cx="113.5" cy="194.5" r="3" transform="rotate(0,113.5,194.5)"/><circle cx="113.5" cy="239.5" r="3" transform="rotate(0,113.5,239.5)"/><circle cx="113.5" cy="248.5" r="3" transform="rotate(0,113.5,248.5)"/><circle cx="113.5" cy="266.5" r="3" transform="rotate(0,113.5,266.5)"/><circle cx="113.5" cy="284.5" r="3" transform="rotate(0,113.5,284.5)"/><circle cx="113.5" cy="293.5" r="3" transform="rotate(0,113.5,293.5)"/><circle cx="122.5" cy="23.5" r="3" transform="rotate(0,122.5,23.5)"/><circle cx="122.5" cy="41.5" r="3" transform="rotate(0,122.5,41.5)"/><circle cx="122.5" cy="68.5" r="3" transform="rotate(0,122.5,68.5)"/><circle cx="122.5" cy="86.5" r="3" transform="rotate(0,122.5,86.5)"/><circle cx="122.5" cy="104.5" r="3" transform="rotate(0,122.5,104.5)"/><circle cx="122.5" cy="194.5" r="3" transform="rotate(0,122.5,194.5)"/><circle cx="122.5" cy="212.5" r="3" transform="rotate(0,122.5,212.5)"/><circle cx="122.5" cy="239.5" r="3" transform="rotate(0,122.5,239.5)"/><circle cx="122.5" cy="248.5" r="3" transform="rotate(0,122.5,248.5)"/><circle cx="122.5" cy="275.5" r="3" transform="rotate(0,122.5,275.5)"/><circle cx="122.5" cy="293.5" r="3" transform="rotate(0,122.5,293.5)"/><circle cx="131.5" cy="32.5" r="3" transform="rotate(0,131.5,32.5)"/><circle cx="131.5" cy="41.5" r="3" transform="rotate(0,131.5,41.5)"/><circle cx="131.5" cy="59.5" r="3" transform="rotate(0,131.5,59.5)"/><circle cx="131.5" cy="104.5" r="3" transform="rotate(0,131.5,104.5)"/><circle cx="131.5" cy="203.5" r="3" transform="rotate(0,131.5,203.5)"/><circle cx="131.5" cy="230.5" r="3" transform="rotate(0,131.5,230.5)"/><circle cx="131.5" cy="239.5" r="3" transform="rotate(0,131.5,239.5)"/><circle cx="131.5" cy="257.5" r="3" transform="rotate(0,131.5,257.5)"/><circle cx="131.5" cy="275.5" r="3" transform="rotate(0,131.5,275.5)"/><circle cx="131.5" cy="284.5" r="3" transform="rotate(0,131.5,284.5)"/><circle cx="140.5" cy="14.5" r="3" transform="rotate(0,140.5,14.5)"/><circle cx="140.5" cy="23.5" r="3" transform="rotate(0,140.5,23.5)"/><circle cx="140.5" cy="86.5" r="3" transform="rotate(0,140.5,86.5)"/><circle cx="140.5" cy="104.5" r="3" transform="rotate(0,140.5,104.5)"/><circle cx="140.5" cy="230.5" r="3" transform="rotate(0,140.5,230.5)"/><circle cx="140.5" cy="257.5" r="3" transform="rotate(0,140.5,257.5)"/><circle cx="140.5" cy="266.5" r="3" transform="rotate(0,140.5,266.5)"/><circle cx="140.5" cy="275.5" r="3" transform="rotate(0,140.5,275.5)"/><circle cx="140.5" cy="293.5" r="3" transform="rotate(0,140.5,293.5)"/><circle cx="149.5" cy="5.5" r="3" transform="rotate(0,149.5,5.5)"/><circle cx="149.5" cy="23.5" r="3" transform="rotate(0,149.5,23.5)"/><circle cx="149.5" cy="32.5" r="3" transform="rotate(0,149.5,32.5)"/><circle cx="149.5" cy="50.5" r="3" transform="rotate(0,149.5,50.5)"/><circle cx="149.5" cy="59.5" r="3" transform="rotate(0,149.5,59.5)"/><circle cx="149.5" cy="68.5" r="3" transform="rotate(0,149.5,68.5)"/><circle cx="149.5" cy="77.5" r="3" transform="rotate(0,149.5,77.5)"/><circle cx="149.5" cy="104.5" r="3" transform="rotate(0,149.5,104.5)"/><circle cx="149.5" cy="212.5" r="3" transform="rotate(0,149.5,212.5)"/><circle cx="149.5" cy="230.5" r="3" transform="rotate(0,149.5,230.5)"/><circle cx="149.5" cy="248.5" r="3" transform="rotate(0,149.5,248.5)"/><circle cx="149.5" cy="257.5" r="3" transform="rotate(0,149.5,257.5)"/><circle cx="149.5" cy="275.5" r="3" transform="rotate(0,149.5,275.5)"/><circle cx="158.5" cy="5.5" r="3" transform="rotate(0,158.5,5.5)"/><circle cx="158.5" cy="14.5" r="3" transform="rotate(0,158.5,14.5)"/><circle cx="158.5" cy="23.5" r="3" transform="rotate(0,158.5,23.5)"/><circle cx="158.5" cy="41.5" r="3" transform="rotate(0,158.5,41.5)"/><circle cx="158.5" cy="50.5" r="3" transform="rotate(0,158.5,50.5)"/><circle cx="158.5" cy="68.5" r="3" transform="rotate(0,158.5,68.5)"/><circle cx="158.5" cy="86.5" r="3" transform="rotate(0,158.5,86.5)"/><circle cx="158.5" cy="95.5" r="3" transform="rotate(0,158.5,95.5)"/><circle cx="158.5" cy="104.5" r="3" transform="rotate(0,158.5,104.5)"/><circle cx="158.5" cy="212.5" r="3" transform="rotate(0,158.5,212.5)"/><circle cx="158.5" cy="221.5" r="3" transform="rotate(0,158.5,221.5)"/><circle cx="158.5" cy="239.5" r="3" transform="rotate(0,158.5,239.5)"/><circle cx="158.5" cy="284.5" r="3" transform="rotate(0,158.5,284.5)"/><circle cx="167.5" cy="5.5" r="3" transform="rotate(0,167.5,5.5)"/><circle cx="167.5" cy="23.5" r="3" transform="rotate(0,167.5,23.5)"/><circle cx="167.5" cy="41.5" r="3" transform="rotate(0,167.5,41.5)"/><circle cx="167.5" cy="50.5" r="3" transform="rotate(0,167.5,50.5)"/><circle cx="167.5" cy="59.5" r="3" transform="rotate(0,167.5,59.5)"/><circle cx="167.5" cy="68.5" r="3" transform="rotate(0,167.5,68.5)"/><circle cx="167.5" cy="77.5" r="3" transform="rotate(0,167.5,77.5)"/><circle cx="167.5" cy="95.5" r="3" transform="rotate(0,167.5,95.5)"/><circle cx="167.5" cy="104.5" r="3" transform="rotate(0,167.5,104.5)"/><circle cx="167.5" cy="203.5" r="3" transform="rotate(0,167.5,203.5)"/><circle cx="167.5" cy="212.5" r="3" transform="rotate(0,167.5,212.5)"/><circle cx="167.5" cy="257.5" r="3" transform="rotate(0,167.5,257.5)"/><circle cx="167.5" cy="266.5" r="3" transform="rotate(0,167.5,266.5)"/><circle cx="167.5" cy="275.5" r="3" transform="rotate(0,167.5,275.5)"/><circle cx="167.5" cy="293.5" r="3" transform="rotate(0,167.5,293.5)"/><circle cx="176.5" cy="14.5" r="3" transform="rotate(0,176.5,14.5)"/><circle cx="176.5" cy="32.5" r="3" transform="rotate(0,176.5,32.5)"/><circle cx="176.5" cy="50.5" r="3" transform="rotate(0,176.5,50.5)"/><circle cx="176.5" cy="68.5" r="3" transform="rotate(0,176.5,68.5)"/><circle cx="176.5" cy="77.5" r="3" transform="rotate(0,176.5,77.5)"/><circle cx="176.5" cy="86.5" r="3" transform="rotate(0,176.5,86.5)"/><circle cx="176.5" cy="95.5" r="3" transform="rotate(0,176.5,95.5)"/><circle cx="176.5" cy="212.5" r="3" transform="rotate(0,176.5,212.5)"/><circle cx="176.5" cy="221.5" r="3" transform="rotate(0,176.5,221.5)"/><circle cx="176.5" cy="230.5" r="3" transform="rotate(0,176.5,230.5)"/><circle cx="176.5" cy="239.5" r="3" transform="rotate(0,176.5,239.5)"/><circle cx="176.5" cy="248.5" r="3" transform="rotate(0,176.5,248.5)"/><circle cx="176.5" cy="257.5" r="3" transform="rotate(0,176.5,257.5)"/><circle cx="176.5" cy="266.5" r="3" transform="rotate(0,176.5,266.5)"/><circle cx="176.5" cy="275.5" r="3" transform="rotate(0,176.5,275.5)"/><circle cx="176.5" cy="284.5" r="3" transform="rotate(0,176.5,284.5)"/><circle cx="185.5" cy="14.5" r="3" transform="rotate(0,185.5,14.5)"/><circle cx="185.5" cy="32.5" r="3" transform="rotate(0,185.5,32.5)"/><circle cx="185.5" cy="59.5" r="3" transform="rotate(0,185.5,59.5)"/><circle cx="185.5" cy="77.5" r="3" transform="rotate(0,185.5,77.5)"/><circle cx="185.5" cy="122.5" r="3" transform="rotate(0,185.5,122.5)"/><circle cx="185.5" cy="149.5" r="3" transform="rotate(0,185.5,149.5)"/><circle cx="185.5" cy="185.5" r="3" transform="rotate(0,185.5,185.5)"/><circle cx="185.5" cy="221.5" r="3" transform="rotate(0,185.5,221.5)"/><circle cx="185.5" cy="230.5" r="3" transform="rotate(0,185.5,230.5)"/><circle cx="185.5" cy="248.5" r="3" transform="rotate(0,185.5,248.5)"/><circle cx="185.5" cy="257.5" r="3" transform="rotate(0,185.5,257.5)"/><circle cx="185.5" cy="266.5" r="3" transform="rotate(0,185.5,266.5)"/><circle cx="185.5" cy="293.5" r="3" transform="rotate(0,185.5,293.5)"/><circle cx="194.5" cy="5.5" r="3" transform="rotate(0,194.5,5.5)"/><circle cx="194.5" cy="14.5" r="3" transform="rotate(0,194.5,14.5)"/><circle cx="194.5" cy="32.5" r="3" transform="rotate(0,194.5,32.5)"/><circle cx="194.5" cy="50.5" r="3" transform="rotate(0,194.5,50.5)"/><circle cx="194.5" cy="68.5" r="3" transform="rotate(0,194.5,68.5)"/><circle cx="194.5" cy="77.5" r="3" transform="rotate(0,194.5,77.5)"/><circle cx="194.5" cy="104.5" r="3" transform="rotate(0,194.5,104.5)"/><circle cx="194.5" cy="113.5" r="3" transform="rotate(0,194.5,113.5)"/><circle cx="194.5" cy="122.5" r="3" transform="rotate(0,194.5,122.5)"/><circle cx="194.5" cy="131.5" r="3" transform="rotate(0,194.5,131.5)"/><circle cx="194.5" cy="140.5" r="3" transform="rotate(0,194.5,140.5)"/><circle cx="194.5" cy="149.5" r="3" transform="rotate(0,194.5,149.5)"/><circle cx="194.5" cy="158.5" r="3" transform="rotate(0,194.5,158.5)"/><circle cx="194.5" cy="176.5" r="3" transform="rotate(0,194.5,176.5)"/><circle cx="194.5" cy="185.5" r="3" transform="rotate(0,194.5,185.5)"/><circle cx="194.5" cy="203.5" r="3" transform="rotate(0,194.5,203.5)"/><circle cx="194.5" cy="212.5" r="3" transform="rotate(0,194.5,212.5)"/><circle cx="194.5" cy="248.5" r="3" transform="rotate(0,194.5,248.5)"/><circle cx="194.5" cy="257.5" r="3" transform="rotate(0,194.5,257.5)"/><circle cx="194.5" cy="275.5" r="3" transform="rotate(0,194.5,275.5)"/><circle cx="203.5" cy="5.5" r="3" transform="rotate(0,203.5,5.5)"/><circle cx="203.5" cy="32.5" r="3" transform="rotate(0,203.5,32.5)"/><circle cx="203.5" cy="41.5" r="3" transform="rotate(0,203.5,41.5)"/><circle cx="203.5" cy="50.5" r="3" transform="rotate(0,203.5,50.5)"/><circle cx="203.5" cy="59.5" r="3" transform="rotate(0,203.5,59.5)"/><circle cx="203.5" cy="86.5" r="3" transform="rotate(0,203.5,86.5)"/><circle cx="203.5" cy="95.5" r="3" transform="rotate(0,203.5,95.5)"/><circle cx="203.5" cy="104.5" r="3" transform="rotate(0,203.5,104.5)"/><circle cx="203.5" cy="131.5" r="3" transform="rotate(0,203.5,131.5)"/><circle cx="203.5" cy="167.5" r="3" transform="rotate(0,203.5,167.5)"/><circle cx="203.5" cy="185.5" r="3" transform="rotate(0,203.5,185.5)"/><circle cx="203.5" cy="194.5" r="3" transform="rotate(0,203.5,194.5)"/><circle cx="203.5" cy="203.5" r="3" transform="rotate(0,203.5,203.5)"/><circle cx="203.5" cy="221.5" r="3" transform="rotate(0,203.5,221.5)"/><circle cx="203.5" cy="248.5" r="3" transform="rotate(0,203.5,248.5)"/><circle cx="203.5" cy="257.5" r="3" transform="rotate(0,203.5,257.5)"/><circle cx="203.5" cy="284.5" r="3" transform="rotate(0,203.5,284.5)"/><circle cx="212.5" cy="5.5" r="3" transform="rotate(0,212.5,5.5)"/><circle cx="212.5" cy="32.5" r="3" transform="rotate(0,212.5,32.5)"/><circle cx="212.5" cy="50.5" r="3" transform="rotate(0,212.5,50.5)"/><circle cx="212.5" cy="68.5" r="3" transform="rotate(0,212.5,68.5)"/><circle cx="212.5" cy="86.5" r="3" transform="rotate(0,212.5,86.5)"/><circle cx="212.5" cy="113.5" r="3" transform="rotate(0,212.5,113.5)"/><circle cx="212.5" cy="131.5" r="3" transform="rotate(0,212.5,131.5)"/><circle cx="212.5" cy="140.5" r="3" transform="rotate(0,212.5,140.5)"/><circle cx="212.5" cy="176.5" r="3" transform="rotate(0,212.5,176.5)"/><circle cx="212.5" cy="185.5" r="3" transform="rotate(0,212.5,185.5)"/><circle cx="212.5" cy="248.5" r="3" transform="rotate(0,212.5,248.5)"/><circle cx="212.5" cy="257.5" r="3" transform="rotate(0,212.5,257.5)"/><circle cx="212.5" cy="275.5" r="3" transform="rotate(0,212.5,275.5)"/><circle cx="212.5" cy="293.5" r="3" transform="rotate(0,212.5,293.5)"/><circle cx="221.5" cy="5.5" r="3" transform="rotate(0,221.5,5.5)"/><circle cx="221.5" cy="14.5" r="3" transform="rotate(0,221.5,14.5)"/><circle cx="221.5" cy="32.5" r="3" transform="rotate(0,221.5,32.5)"/><circle cx="221.5" cy="41.5" r="3" transform="rotate(0,221.5,41.5)"/><circle cx="221.5" cy="59.5" r="3" transform="rotate(0,221.5,59.5)"/><circle cx="221.5" cy="77.5" r="3" transform="rotate(0,221.5,77.5)"/><circle cx="221.5" cy="86.5" r="3" transform="rotate(0,221.5,86.5)"/><circle cx="221.5" cy="104.5" r="3" transform="rotate(0,221.5,104.5)"/><circle cx="221.5" cy="131.5" r="3" transform="rotate(0,221.5,131.5)"/><circle cx="221.5" cy="149.5" r="3" transform="rotate(0,221.5,149.5)"/><circle cx="221.5" cy="167.5" r="3" transform="rotate(0,221.5,167.5)"/><circle cx="221.5" cy="185.5" r="3" transform="rotate(0,221.5,185.5)"/><circle cx="221.5" cy="212.5" r="3" transform="rotate(0,221.5,212.5)"/><circle cx="221.5" cy="221.5" r="3" transform="rotate(0,221.5,221.5)"/><circle cx="221.5" cy="230.5" r="3" transform="rotate(0,221.5,230.5)"/><circle cx="221.5" cy="239.5" r="3" transform="rotate(0,221.5,239.5)"/><circle cx="221.5" cy="248.5" r="3" transform="rotate(0,221.5,248.5)"/><circle cx="221.5" cy="257.5" r="3" transform="rotate(0,221.5,257.5)"/><circle cx="221.5" cy="266.5" r="3" transform="rotate(0,221.5,266.5)"/><circle cx="230.5" cy="77.5" r="3" transform="rotate(0,230.5,77.5)"/><circle cx="230.5" cy="86.5" r="3" transform="rotate(0,230.5,86.5)"/><circle cx="230.5" cy="95.5" r="3" transform="rotate(0,230.5,95.5)"/><circle cx="230.5" cy="104.5" r="3" transform="rotate(0,230.5,104.5)"/><circle cx="230.5" cy="122.5" r="3" transform="rotate(0,230.5,122.5)"/><circle cx="230.5" cy="131.5" r="3" transform="rotate(0,230.5,131.5)"/><circle cx="230.5" cy="158.5" r="3" transform="rotate(0,230.5,158.5)"/><circle cx="230.5" cy="167.5" r="3" transform="rotate(0,230.5,167.5)"/><circle cx="230.5" cy="185.5" r="3" transform="rotate(0,230.5,185.5)"/><circle cx="230.5" cy="221.5" r="3" transform="rotate(0,230.5,221.5)"/><circle cx="230.5" cy="257.5" r="3" transform="rotate(0,230.5,257.5)"/><circle cx="230.5" cy="266.5" r="3" transform="rotate(0,230.5,266.5)"/><circle cx="230.5" cy="284.5" r="3" transform="rotate(0,230.5,284.5)"/><circle cx="230.5" cy="293.5" r="3" transform="rotate(0,230.5,293.5)"/><circle cx="239.5" cy="86.5" r="3" transform="rotate(0,239.5,86.5)"/><circle cx="239.5" cy="131.5" r="3" transform="rotate(0,239.5,131.5)"/><circle cx="239.5" cy="158.5" r="3" transform="rotate(0,239.5,158.5)"/><circle cx="239.5" cy="176.5" r="3" transform="rotate(0,239.5,176.5)"/><circle cx="239.5" cy="194.5" r="3" transform="rotate(0,239.5,194.5)"/><circle cx="239.5" cy="212.5" r="3" transform="rotate(0,239.5,212.5)"/><circle cx="239.5" cy="221.5" r="3" transform="rotate(0,239.5,221.5)"/><circle cx="239.5" cy="239.5" r="3" transform="rotate(0,239.5,239.5)"/><circle cx="239.5" cy="257.5" r="3" transform="rotate(0,239.5,257.5)"/><circle cx="239.5" cy="266.5" r="3" transform="rotate(0,239.5,266.5)"/><circle cx="239.5" cy="284.5" r="3" transform="rotate(0,239.5,284.5)"/><circle cx="248.5" cy="77.5" r="3" transform="rotate(0,248.5,77.5)"/><circle cx="248.5" cy="86.5" r="3" transform="rotate(0,248.5,86.5)"/><circle cx="248.5" cy="104.5" r="3" transform="rotate(0,248.5,104.5)"/><circle cx="248.5" cy="113.5" r="3" transform="rotate(0,248.5,113.5)"/><circle cx="248.5" cy="131.5" r="3" transform="rotate(0,248.5,131.5)"/><circle cx="248.5" cy="140.5" r="3" transform="rotate(0,248.5,140.5)"/><circle cx="248.5" cy="158.5" r="3" transform="rotate(0,248.5,158.5)"/><circle cx="248.5" cy="176.5" r="3" transform="rotate(0,248.5,176.5)"/><circle cx="248.5" cy="221.5" r="3" transform="rotate(0,248.5,221.5)"/><circle cx="248.5" cy="257.5" r="3" transform="rotate(0,248.5,257.5)"/><circle cx="248.5" cy="266.5" r="3" transform="rotate(0,248.5,266.5)"/><circle cx="248.5" cy="275.5" r="3" transform="rotate(0,248.5,275.5)"/><circle cx="248.5" cy="284.5" r="3" transform="rotate(0,248.5,284.5)"/><circle cx="257.5" cy="104.5" r="3" transform="rotate(0,257.5,104.5)"/><circle cx="257.5" cy="113.5" r="3" transform="rotate(0,257.5,113.5)"/><circle cx="257.5" cy="131.5" r="3" transform="rotate(0,257.5,131.5)"/><circle cx="257.5" cy="140.5" r="3" transform="rotate(0,257.5,140.5)"/><circle cx="257.5" cy="158.5" r="3" transform="rotate(0,257.5,158.5)"/><circle cx="257.5" cy="194.5" r="3" transform="rotate(0,257.5,194.5)"/><circle cx="257.5" cy="221.5" r="3" transform="rotate(0,257.5,221.5)"/><circle cx="257.5" cy="230.5" r="3" transform="rotate(0,257.5,230.5)"/><circle cx="257.5" cy="239.5" r="3" transform="rotate(0,257.5,239.5)"/><circle cx="257.5" cy="248.5" r="3" transform="rotate(0,257.5,248.5)"/><circle cx="257.5" cy="257.5" r="3" transform="rotate(0,257.5,257.5)"/><circle cx="257.5" cy="284.5" r="3" transform="rotate(0,257.5,284.5)"/><circle cx="257.5" cy="293.5" r="3" transform="rotate(0,257.5,293.5)"/><circle cx="266.5" cy="86.5" r="3" transform="rotate(0,266.5,86.5)"/><circle cx="266.5" cy="95.5" r="3" transform="rotate(0,266.5,95.5)"/><circle cx="266.5" cy="104.5" r="3" transform="rotate(0,266.5,104.5)"/><circle cx="266.5" cy="140.5" r="3" transform="rotate(0,266.5,140.5)"/><circle cx="266.5" cy="149.5" r="3" transform="rotate(0,266.5,149.5)"/><circle cx="266.5" cy="158.5" r="3" transform="rotate(0,266.5,158.5)"/><circle cx="266.5" cy="167.5" r="3" transform="rotate(0,266.5,167.5)"/><circle cx="266.5" cy="185.5" r="3" transform="rotate(0,266.5,185.5)"/><circle cx="266.5" cy="203.5" r="3" transform="rotate(0,266.5,203.5)"/><circle cx="266.5" cy="221.5" r="3" transform="rotate(0,266.5,221.5)"/><circle cx="266.5" cy="230.5" r="3" transform="rotate(0,266.5,230.5)"/><circle cx="266.5" cy="248.5" r="3" transform="rotate(0,266.5,248.5)"/><circle cx="266.5" cy="257.5" r="3" transform="rotate(0,266.5,257.5)"/><circle cx="266.5" cy="266.5" r="3" transform="rotate(0,266.5,266.5)"/><circle cx="266.5" cy="293.5" r="3" transform="rotate(0,266.5,293.5)"/><circle cx="275.5" cy="86.5" r="3" transform="rotate(0,275.5,86.5)"/><circle cx="275.5" cy="104.5" r="3" transform="rotate(0,275.5,104.5)"/><circle cx="275.5" cy="149.5" r="3" transform="rotate(0,275.5,149.5)"/><circle cx="275.5" cy="158.5" r="3" transform="rotate(0,275.5,158.5)"/><circle cx="275.5" cy="176.5" r="3" transform="rotate(0,275.5,176.5)"/><circle cx="275.5" cy="194.5" r="3" transform="rotate(0,275.5,194.5)"/><circle cx="275.5" cy="257.5" r="3" transform="rotate(0,275.5,257.5)"/><circle cx="275.5" cy="266.5" r="3" transform="rotate(0,275.5,266.5)"/><circle cx="275.5" cy="275.5" r="3" transform="rotate(0,275.5,275.5)"/><circle cx="275.5" cy="284.5" r="3" transform="rotate(0,275.5,284.5)"/><circle cx="275.5" cy="293.5" r="3" transform="rotate(0,275.5,293.5)"/><circle cx="284.5" cy="86.5" r="3" transform="rotate(0,284.5,86.5)"/><circle cx="284.5" cy="104.5" r="3" transform="rotate(0,284.5,104.5)"/><circle cx="284.5" cy="149.5" r="3" transform="rotate(0,284.5,149.5)"/><circle cx="284.5" cy="158.5" r="3" transform="rotate(0,284.5,158.5)"/><circle cx="284.5" cy="176.5" r="3" transform="rotate(0,284.5,176.5)"/><circle cx="284.5" cy="203.5" r="3" transform="rotate(0,284.5,203.5)"/><circle cx="284.5" cy="230.5" r="3" transform="rotate(0,284.5,230.5)"/><circle cx="284.5" cy="266.5" r="3" transform="rotate(0,284.5,266.5)"/><circle cx="284.5" cy="275.5" r="3" transform="rotate(0,284.5,275.5)"/><circle cx="293.5" cy="86.5" r="3" transform="rotate(0,293.5,86.5)"/><circle cx="293.5" cy="95.5" r="3" transform="rotate(0,293.5,95.5)"/><circle cx="293.5" cy="104.5" r="3" transform="rotate(0,293.5,104.5)"/><circle cx="293.5" cy="122.5" r="3" transform="rotate(0,293.5,122.5)"/><circle cx="293.5" cy="140.5" r="3" transform="rotate(0,293.5,140.5)"/><circle cx="293.5" cy="149.5" r="3" transform="rotate(0,293.5,149.5)"/><circle cx="293.5" cy="158.5" r="3" transform="rotate(0,293.5,158.5)"/><circle cx="293.5" cy="194.5" r="3" transform="rotate(0,293.5,194.5)"/><circle cx="293.5" cy="221.5" r="3" transform="rotate(0,293.5,221.5)"/><circle cx="293.5" cy="230.5" r="3" transform="rotate(0,293.5,230.5)"/><circle cx="293.5" cy="275.5" r="3" transform="rotate(0,293.5,275.5)"/><circle cx="293.5" cy="284.5" r="3" transform="rotate(0,293.5,284.5)"/></clipPath><radialGradient id="dot-color" gradientUnits="userSpaceOnUse" fx="149.5" fy="149.5" cx="149.5" cy="149.5" r="148.5"><stop offset="0%" stop-color="#FFA116"/><stop offset="100%" stop-color="#000000"/></radialGradient><clipPath id="clip-path-corners-square-color-0-0"><path clip-rule="evenodd" d="M 1 23.5v 18a 22.5 22.5, 0, 0, 0, 22.5 22.5h 18a 22.5 22.5, 0, 0, 0, 22.5 -22.5v -18a 22.5 22.5, 0, 0, 0, -22.5 -22.5h -18a 22.5 22.5, 0, 0, 0, -22.5 22.5M 23.5 10h 18a 13.5 13.5, 0, 0, 1, 13.5 13.5v 18a 13.5 13.5, 0, 0, 1, -13.5 13.5h -18a 13.5 13.5, 0, 0, 1, -13.5 -13.5v -18a 13.5 13.5, 0, 0, 1, 13.5 -13.5" transform="rotate(0,32.5,32.5)"/></clipPath><linearGradient id="corners-square-color-0-0" gradientUnits="userSpaceOnUse" x1="30" y1="64" x2="35" y2="1"><stop offset="0%" stop-color="#FFA116"/><stop offset="100%" stop-color="#000000"/></linearGradient><clipPath id="clip-path-corners-dot-color-0-0"><circle cx="32.5" cy="32.5" r="13.5" transform="rotate(0,32.5,32.5)"/></clipPath><linearGradient id="corners-dot-color-0-0" gradientUnits="userSpaceOnUse" x1="31" y1="46" x2="34" y2="19"><stop offset="0%" stop-color="#FFA116"/><stop offset="100%" stop-color="#000000"/></linearGradient><clipPath id="clip-path-corners-square-color-1-0"><path clip-rule="evenodd" d="M 235 23.5v 18a 22.5 22.5, 0, 0, 0, 22.5 22.5h 18a 22.5 22.5, 0, 0, 0, 22.5 -22.5v -18a 22.5 22.5, 0, 0, 0, -22.5 -22.5h -18a 22.5 22.5, 0, 0, 0, -22.5 22.5M 257.5 10h 18a 13.5 13.5, 0, 0, 1, 13.5 13.5v 18a 13.5 13.5, 0, 0, 1, -13.5 13.5h -18a 13.5 13.5, 0, 0, 1, -13.5 -13.5v -18a 13.5 13.5, 0, 0, 1, 13.5 -13.5" transform="rotate(90,266.5,32.5)"/></clipPath><linearGradient id="corners-square-color-1-0" gradientUnits="userSpaceOnUse" x1="235" y1="30" x2="298" y2="35"><stop offset="0%" stop-color="#FFA116"/><stop offset="100%" stop-color="#000000"/></linearGradient><clipPath id="clip-path-corners-dot-color-1-0"><circle cx="266.5" cy="32.5" r="13.5" transform="rotate(90,266.5,32.5)"/></clipPath><linearGradient id="corners-dot-color-1-0" gradientUnits="userSpaceOnUse" x1="253" y1="31" x2="280" y2="34"><stop offset="0%" stop-color="#FFA116"/><stop offset="100%" stop-color="#000000"/></linearGradient><clipPath id="clip-path-corners-square-color-0-1"><path clip-rule="evenodd" d="M 1 257.5v 18a 22.5 22.5, 0, 0, 0, 22.5 22.5h 18a 22.5 22.5, 0, 0, 0, 22.5 -22.5v -18a 22.5 22.5, 0, 0, 0, -22.5 -22.5h -18a 22.5 22.5, 0, 0, 0, -22.5 22.5M 23.5 244h 18a 13.5 13.5, 0, 0, 1, 13.5 13.5v 18a 13.5 13.5, 0, 0, 1, -13.5 13.5h -18a 13.5 13.5, 0, 0, 1, -13.5 -13.5v -18a 13.5 13.5, 0, 0, 1, 13.5 -13.5" transform="rotate(-90,32.5,266.5)"/></clipPath><linearGradient id="corners-square-color-0-1" gradientUnits="userSpaceOnUse" x1="64" y1="269" x2="1" y2="264"><stop offset="0%" stop-color="#FFA116"/><stop offset="100%" stop-color="#000000"/></linearGradient><clipPath id="clip-path-corners-dot-color-0-1"><circle cx="32.5" cy="266.5" r="13.5" transform="rotate(-90,32.5,266.5)"/></clipPath><linearGradient id="corners-dot-color-0-1" gradientUnits="userSpaceOnUse" x1="46" y1="268" x2="19" y2="265"><stop offset="0%" stop-color="#FFA116"/><stop offset="100%" stop-color="#000000"/></linearGradient></defs><rect x="1" y="1" height="297" width="297" clip-path="url('#clip-path-dot-color')" fill="url('#dot-color')"/><rect x="1" y="1" height="63" width="63" clip-path="url('#clip-path-corners-square-color-0-0')" fill="url('#corners-square-color-0-0')"/><rect x="19" y="19" height="27" width="27" clip-path="url('#clip-path-corners-dot-color-0-0')" fill="url('#corners-dot-color-0-0')"/><rect x="235" y="1" height="63" width="63" clip-path="url('#clip-path-corners-square-color-1-0')" fill="url('#corners-square-color-1-0')"/><rect x="253" y="19" height="27" width="27" clip-path="url('#clip-path-corners-dot-color-1-0')" fill="url('#corners-dot-color-1-0')"/><rect x="1" y="235" height="63" width="63" clip-path="url('#clip-path-corners-square-color-0-1')" fill="url('#corners-square-color-0-1')"/><rect x="19" y="253" height="27" width="27" clip-path="url('#clip-path-corners-dot-color-0-1')" fill="url('#corners-dot-color-0-1')"/><svg width="59px" height="70px" viewBox="0 0 94 111" version="1.1" xmlns="http://www.w3.org/2000/svg" xmlns:xlink="http://www.w3.org/1999/xlink" x="120" y="114.5"><title>1_black</title><desc>Created with Sketch.</desc><g id="Page-1" stroke="none" stroke-width="1" fill="black" fill-rule="evenodd"><g id="branding_-resource" transform="translate(-2093.000000, -290.000000)"><g id="1_black" transform="translate(2093.000000, 290.000000)"><path d="M67.5068339,83.0664138 C70.0005384,80.5763786 74.0371402,80.5828822 76.5228362,83.0809398 C79.0085322,85.5789975 79.00204,89.6226456 76.5083355,92.1126808 L65.4351451,103.169577 C55.2192332,113.370744 38.5604663,113.518673 28.1722578,103.513204 C28.112217,103.455678 23.486583,98.9201326 8.22702585,83.9570195 C-1.92478479,74.0028895 -2.93614945,58.0748736 6.61697549,47.8463644 L24.4286944,28.7745461 C33.9100043,18.6218594 51.3874487,17.5122246 62.2279907,26.2789232 L78.4052912,39.3620235 C81.1448956,41.5776292 81.5728103,45.5984975 79.3610655,48.3428842 C77.1493207,51.0872709 73.1354592,51.5159327 70.3958548,49.300327 L54.2186634,36.2173149 C48.5492813,31.6325105 38.631911,32.2621597 33.7398535,37.5006265 L15.9279056,56.5726899 C11.2772073,61.552182 11.7865613,69.5740156 17.1461283,74.8292186 C28.3515339,85.8169393 36.9874071,94.2846214 36.9973988,94.294225 C42.3981571,99.4959838 51.130862,99.418438 56.43358,94.1233737 L67.5068339,83.0664138 Z" id="path_3" fill="#FFA116" fill-rule="nonzero"/><path d="M40.6069914,72.0014117 C37.086019,72.0014117 34.2317068,69.142117 34.2317068,65.6149982 C34.2317068,62.0878794 37.086019,59.2285847 40.6069914,59.2285847 L87.6247154,59.2285847 C91.1456879,59.2285847 94,62.0878794 94,65.6149982 C94,69.142117 91.1456879,72.0014117 87.6247154,72.0014117 L40.6069914,72.0014117 Z" id="path_2" fill="#B3B3B3"/><path d="M49.4124315,2.02335002 C51.8178981,-0.552320454 55.852269,-0.686893945 58.4234511,1.72277172 C60.9946333,4.13243738 61.1289722,8.17385083 58.7235056,10.7495213 L15.9282277,56.5728697 C11.2773659,61.551984 11.7867168,69.5737689 17.1459309,74.8291832 L36.9094236,94.2091099 C39.4255514,96.6764051 39.4686234,100.719828 37.0056277,103.240348 C34.5426319,105.760868 30.5062548,105.804016 27.990127,103.33672 L8.22654289,83.9567041 C-1.92467414,74.0021005 -2.93603527,58.0741402 6.61751533,47.846311 L49.4124315,2.02335002 Z" id="path_1" fill="#000000"/></g></g></g></svg></svg></g></svg></svg>